<mxfile host="app.diagrams.net" agent="Mozilla/5.0 (Macintosh; Intel Mac OS X 10_15_7) AppleWebKit/537.36 (KHTML, like Gecko) Chrome/131.0.0.0 Safari/537.36" version="26.0.15">
  <diagram name="Page-1" id="VIOiTilKl4eGuaPKDuVN">
    <mxGraphModel dx="1434" dy="905" grid="1" gridSize="10" guides="1" tooltips="1" connect="1" arrows="1" fold="1" page="1" pageScale="1" pageWidth="850" pageHeight="1100" math="0" shadow="0">
      <root>
        <mxCell id="0" />
        <mxCell id="1" parent="0" />
        <mxCell id="x_vzmbfjRcHhfL4o9gEs-6" value="" style="edgeStyle=orthogonalEdgeStyle;rounded=0;orthogonalLoop=1;jettySize=auto;html=1;" edge="1" parent="1" source="x_vzmbfjRcHhfL4o9gEs-1" target="x_vzmbfjRcHhfL4o9gEs-2">
          <mxGeometry relative="1" as="geometry">
            <mxPoint x="270" y="460" as="targetPoint" />
          </mxGeometry>
        </mxCell>
        <mxCell id="x_vzmbfjRcHhfL4o9gEs-1" value="AS 1" style="ellipse;whiteSpace=wrap;html=1;fillColor=#fff2cc;strokeColor=#d6b656;" vertex="1" parent="1">
          <mxGeometry x="50" y="420" width="120" height="80" as="geometry" />
        </mxCell>
        <mxCell id="x_vzmbfjRcHhfL4o9gEs-10" value="" style="edgeStyle=orthogonalEdgeStyle;rounded=0;orthogonalLoop=1;jettySize=auto;html=1;" edge="1" parent="1" source="x_vzmbfjRcHhfL4o9gEs-2" target="x_vzmbfjRcHhfL4o9gEs-3">
          <mxGeometry relative="1" as="geometry">
            <mxPoint x="550" y="300" as="targetPoint" />
          </mxGeometry>
        </mxCell>
        <mxCell id="x_vzmbfjRcHhfL4o9gEs-2" value="AS 2" style="ellipse;whiteSpace=wrap;html=1;fillColor=#fff2cc;strokeColor=#d6b656;" vertex="1" parent="1">
          <mxGeometry x="490" y="420" width="120" height="80" as="geometry" />
        </mxCell>
        <mxCell id="x_vzmbfjRcHhfL4o9gEs-18" value="" style="edgeStyle=orthogonalEdgeStyle;rounded=0;orthogonalLoop=1;jettySize=auto;html=1;" edge="1" parent="1" source="x_vzmbfjRcHhfL4o9gEs-3" target="x_vzmbfjRcHhfL4o9gEs-16">
          <mxGeometry relative="1" as="geometry" />
        </mxCell>
        <mxCell id="x_vzmbfjRcHhfL4o9gEs-3" value="AS 4" style="ellipse;whiteSpace=wrap;html=1;fillColor=#dae8fc;strokeColor=#6c8ebf;" vertex="1" parent="1">
          <mxGeometry x="490" y="170" width="120" height="80" as="geometry" />
        </mxCell>
        <mxCell id="x_vzmbfjRcHhfL4o9gEs-17" value="" style="edgeStyle=orthogonalEdgeStyle;rounded=0;orthogonalLoop=1;jettySize=auto;html=1;" edge="1" parent="1" source="x_vzmbfjRcHhfL4o9gEs-4" target="x_vzmbfjRcHhfL4o9gEs-16">
          <mxGeometry relative="1" as="geometry" />
        </mxCell>
        <mxCell id="x_vzmbfjRcHhfL4o9gEs-4" value="AS 3" style="ellipse;whiteSpace=wrap;html=1;fillColor=#dae8fc;strokeColor=#6c8ebf;" vertex="1" parent="1">
          <mxGeometry x="60" y="170" width="120" height="80" as="geometry" />
        </mxCell>
        <mxCell id="x_vzmbfjRcHhfL4o9gEs-7" value="AS 1 announcing Prefix P" style="text;html=1;align=center;verticalAlign=middle;whiteSpace=wrap;rounded=0;" vertex="1" parent="1">
          <mxGeometry x="275" y="470" width="115" height="30" as="geometry" />
        </mxCell>
        <mxCell id="x_vzmbfjRcHhfL4o9gEs-8" value="ROUTING TABLE - AS2&lt;div&gt;AS 1&amp;nbsp; &amp;nbsp; &amp;nbsp; &amp;nbsp;Prefix P&amp;nbsp;&lt;/div&gt;" style="rounded=0;whiteSpace=wrap;html=1;fillColor=#f5f5f5;fontColor=#333333;strokeColor=#666666;" vertex="1" parent="1">
          <mxGeometry x="630" y="420" width="180" height="70" as="geometry" />
        </mxCell>
        <mxCell id="x_vzmbfjRcHhfL4o9gEs-11" value="AS 2 announcing Prefix P" style="text;html=1;align=center;verticalAlign=middle;whiteSpace=wrap;rounded=0;" vertex="1" parent="1">
          <mxGeometry x="560" y="310" width="115" height="30" as="geometry" />
        </mxCell>
        <mxCell id="x_vzmbfjRcHhfL4o9gEs-12" value="ROUTING TABLE - AS4&lt;div&gt;AS 1&amp;nbsp; &amp;nbsp; &amp;nbsp; &amp;nbsp;Prefix P&amp;nbsp;&lt;/div&gt;" style="rounded=0;whiteSpace=wrap;html=1;fillColor=#f5f5f5;fontColor=#333333;strokeColor=#666666;" vertex="1" parent="1">
          <mxGeometry x="630" y="170" width="180" height="70" as="geometry" />
        </mxCell>
        <mxCell id="x_vzmbfjRcHhfL4o9gEs-13" value="" style="edgeStyle=orthogonalEdgeStyle;rounded=0;orthogonalLoop=1;jettySize=auto;html=1;entryX=0.5;entryY=1;entryDx=0;entryDy=0;" edge="1" parent="1" target="x_vzmbfjRcHhfL4o9gEs-4">
          <mxGeometry relative="1" as="geometry">
            <mxPoint x="120" y="419" as="sourcePoint" />
            <mxPoint x="430" y="419" as="targetPoint" />
          </mxGeometry>
        </mxCell>
        <mxCell id="x_vzmbfjRcHhfL4o9gEs-14" value="AS 1 announcing Prefix P" style="text;html=1;align=center;verticalAlign=middle;whiteSpace=wrap;rounded=0;" vertex="1" parent="1">
          <mxGeometry x="10" y="310" width="115" height="30" as="geometry" />
        </mxCell>
        <mxCell id="x_vzmbfjRcHhfL4o9gEs-15" value="ROUTING TABLE - AS3&lt;div&gt;AS 1&amp;nbsp; &amp;nbsp; &amp;nbsp; &amp;nbsp;Prefix P&amp;nbsp;&lt;/div&gt;" style="rounded=0;whiteSpace=wrap;html=1;fillColor=#f5f5f5;fontColor=#333333;strokeColor=#666666;" vertex="1" parent="1">
          <mxGeometry x="30" y="80" width="180" height="70" as="geometry" />
        </mxCell>
        <mxCell id="x_vzmbfjRcHhfL4o9gEs-21" value="" style="edgeStyle=orthogonalEdgeStyle;rounded=0;orthogonalLoop=1;jettySize=auto;html=1;" edge="1" parent="1" source="x_vzmbfjRcHhfL4o9gEs-16" target="x_vzmbfjRcHhfL4o9gEs-20">
          <mxGeometry relative="1" as="geometry" />
        </mxCell>
        <mxCell id="x_vzmbfjRcHhfL4o9gEs-16" value="RC 1" style="shape=hexagon;perimeter=hexagonPerimeter2;whiteSpace=wrap;html=1;fixedSize=1;fillColor=#d5e8d4;strokeColor=#82b366;" vertex="1" parent="1">
          <mxGeometry x="275" y="170" width="120" height="80" as="geometry" />
        </mxCell>
        <mxCell id="x_vzmbfjRcHhfL4o9gEs-19" value="ROUTING TABLE - RC 1&lt;div&gt;&amp;nbsp; &amp;nbsp;&lt;strike&gt;AS2&amp;nbsp; &amp;nbsp; &amp;nbsp; &amp;nbsp;Prefix P AS4 AS2 AS1&lt;/strike&gt;&lt;br&gt;&lt;div&gt;AS 1&amp;nbsp; &amp;nbsp; &amp;nbsp; &amp;nbsp;Prefix P&amp;nbsp; &amp;nbsp; &amp;nbsp;AS3 AS1&lt;/div&gt;&lt;/div&gt;" style="rounded=0;whiteSpace=wrap;html=1;fillColor=#f5f5f5;fontColor=#333333;strokeColor=#666666;" vertex="1" parent="1">
          <mxGeometry x="260" y="80" width="180" height="70" as="geometry" />
        </mxCell>
        <mxCell id="x_vzmbfjRcHhfL4o9gEs-20" value="Web Archives" style="ellipse;shape=cloud;whiteSpace=wrap;html=1;fillColor=#ffe6cc;strokeColor=#d79b00;" vertex="1" parent="1">
          <mxGeometry x="275" y="300" width="120" height="80" as="geometry" />
        </mxCell>
        <mxCell id="x_vzmbfjRcHhfL4o9gEs-22" value="" style="edgeStyle=orthogonalEdgeStyle;rounded=0;orthogonalLoop=1;jettySize=auto;html=1;" edge="1" parent="1" source="x_vzmbfjRcHhfL4o9gEs-23" target="x_vzmbfjRcHhfL4o9gEs-25">
          <mxGeometry relative="1" as="geometry">
            <mxPoint x="300" y="940" as="targetPoint" />
          </mxGeometry>
        </mxCell>
        <mxCell id="x_vzmbfjRcHhfL4o9gEs-23" value="AS 1" style="ellipse;whiteSpace=wrap;html=1;fillColor=#fff2cc;strokeColor=#d6b656;" vertex="1" parent="1">
          <mxGeometry x="80" y="900" width="120" height="80" as="geometry" />
        </mxCell>
        <mxCell id="x_vzmbfjRcHhfL4o9gEs-24" value="" style="edgeStyle=orthogonalEdgeStyle;rounded=0;orthogonalLoop=1;jettySize=auto;html=1;" edge="1" parent="1" source="x_vzmbfjRcHhfL4o9gEs-25" target="x_vzmbfjRcHhfL4o9gEs-27">
          <mxGeometry relative="1" as="geometry">
            <mxPoint x="580" y="780" as="targetPoint" />
          </mxGeometry>
        </mxCell>
        <mxCell id="x_vzmbfjRcHhfL4o9gEs-25" value="AS 2" style="ellipse;whiteSpace=wrap;html=1;fillColor=#fff2cc;strokeColor=#d6b656;" vertex="1" parent="1">
          <mxGeometry x="520" y="900" width="120" height="80" as="geometry" />
        </mxCell>
        <mxCell id="x_vzmbfjRcHhfL4o9gEs-26" value="" style="edgeStyle=orthogonalEdgeStyle;rounded=0;orthogonalLoop=1;jettySize=auto;html=1;" edge="1" parent="1" source="x_vzmbfjRcHhfL4o9gEs-27" target="x_vzmbfjRcHhfL4o9gEs-38">
          <mxGeometry relative="1" as="geometry" />
        </mxCell>
        <mxCell id="x_vzmbfjRcHhfL4o9gEs-27" value="AS 4" style="ellipse;whiteSpace=wrap;html=1;fillColor=#dae8fc;strokeColor=#6c8ebf;" vertex="1" parent="1">
          <mxGeometry x="520" y="650" width="120" height="80" as="geometry" />
        </mxCell>
        <mxCell id="x_vzmbfjRcHhfL4o9gEs-28" value="" style="edgeStyle=orthogonalEdgeStyle;rounded=0;orthogonalLoop=1;jettySize=auto;html=1;" edge="1" parent="1" source="x_vzmbfjRcHhfL4o9gEs-29" target="x_vzmbfjRcHhfL4o9gEs-38">
          <mxGeometry relative="1" as="geometry" />
        </mxCell>
        <mxCell id="x_vzmbfjRcHhfL4o9gEs-29" value="AS 3" style="ellipse;whiteSpace=wrap;html=1;fillColor=#dae8fc;strokeColor=#6c8ebf;" vertex="1" parent="1">
          <mxGeometry x="90" y="650" width="120" height="80" as="geometry" />
        </mxCell>
        <mxCell id="x_vzmbfjRcHhfL4o9gEs-30" value="AS 1 withdrawing Prefix P" style="text;html=1;align=center;verticalAlign=middle;whiteSpace=wrap;rounded=0;" vertex="1" parent="1">
          <mxGeometry x="305" y="950" width="115" height="30" as="geometry" />
        </mxCell>
        <mxCell id="x_vzmbfjRcHhfL4o9gEs-31" value="ROUTING TABLE - AS2&lt;div&gt;&lt;strike&gt;AS 1&amp;nbsp; &amp;nbsp; &amp;nbsp; &amp;nbsp;Prefix P&amp;nbsp;&lt;/strike&gt;&lt;/div&gt;" style="rounded=0;whiteSpace=wrap;html=1;fillColor=#f5f5f5;fontColor=#333333;strokeColor=#666666;" vertex="1" parent="1">
          <mxGeometry x="660" y="900" width="180" height="70" as="geometry" />
        </mxCell>
        <mxCell id="x_vzmbfjRcHhfL4o9gEs-32" value="AS 2 withdrawing Prefix P" style="text;html=1;align=center;verticalAlign=middle;whiteSpace=wrap;rounded=0;" vertex="1" parent="1">
          <mxGeometry x="590" y="790" width="115" height="30" as="geometry" />
        </mxCell>
        <mxCell id="x_vzmbfjRcHhfL4o9gEs-33" value="ROUTING TABLE - AS4&lt;div&gt;&lt;strike&gt;AS 1&amp;nbsp; &amp;nbsp; &amp;nbsp; &amp;nbsp;Prefix P&amp;nbsp;&lt;/strike&gt;&lt;/div&gt;" style="rounded=0;whiteSpace=wrap;html=1;fillColor=#f5f5f5;fontColor=#333333;strokeColor=#666666;" vertex="1" parent="1">
          <mxGeometry x="660" y="650" width="180" height="70" as="geometry" />
        </mxCell>
        <mxCell id="x_vzmbfjRcHhfL4o9gEs-34" value="" style="edgeStyle=orthogonalEdgeStyle;rounded=0;orthogonalLoop=1;jettySize=auto;html=1;entryX=0.5;entryY=1;entryDx=0;entryDy=0;" edge="1" parent="1" target="x_vzmbfjRcHhfL4o9gEs-29">
          <mxGeometry relative="1" as="geometry">
            <mxPoint x="150" y="899" as="sourcePoint" />
            <mxPoint x="460" y="899" as="targetPoint" />
          </mxGeometry>
        </mxCell>
        <mxCell id="x_vzmbfjRcHhfL4o9gEs-35" value="AS 1 withdrawing Prefix P" style="text;html=1;align=center;verticalAlign=middle;whiteSpace=wrap;rounded=0;" vertex="1" parent="1">
          <mxGeometry x="40" y="790" width="115" height="30" as="geometry" />
        </mxCell>
        <mxCell id="x_vzmbfjRcHhfL4o9gEs-36" value="ROUTING TABLE - AS3&lt;div&gt;&lt;strike&gt;AS 1&amp;nbsp; &amp;nbsp; &amp;nbsp; &amp;nbsp;Prefix P&amp;nbsp;&lt;/strike&gt;&lt;/div&gt;" style="rounded=0;whiteSpace=wrap;html=1;fillColor=#f5f5f5;fontColor=#333333;strokeColor=#666666;" vertex="1" parent="1">
          <mxGeometry x="60" y="560" width="180" height="70" as="geometry" />
        </mxCell>
        <mxCell id="x_vzmbfjRcHhfL4o9gEs-37" value="" style="edgeStyle=orthogonalEdgeStyle;rounded=0;orthogonalLoop=1;jettySize=auto;html=1;" edge="1" parent="1" source="x_vzmbfjRcHhfL4o9gEs-38" target="x_vzmbfjRcHhfL4o9gEs-40">
          <mxGeometry relative="1" as="geometry" />
        </mxCell>
        <mxCell id="x_vzmbfjRcHhfL4o9gEs-38" value="RC 1" style="shape=hexagon;perimeter=hexagonPerimeter2;whiteSpace=wrap;html=1;fixedSize=1;fillColor=#d5e8d4;strokeColor=#82b366;" vertex="1" parent="1">
          <mxGeometry x="305" y="650" width="120" height="80" as="geometry" />
        </mxCell>
        <mxCell id="x_vzmbfjRcHhfL4o9gEs-39" value="ROUTING TABLE - RC 1&lt;div&gt;&amp;nbsp; &amp;nbsp;&lt;strike&gt;AS2&amp;nbsp; &amp;nbsp; &amp;nbsp; &amp;nbsp;Prefix P AS4 AS2 AS1&lt;/strike&gt;&lt;br&gt;&lt;div&gt;&lt;strike&gt;AS 1&amp;nbsp; &amp;nbsp; &amp;nbsp; &amp;nbsp;Prefix P&amp;nbsp; &amp;nbsp; &amp;nbsp;AS3 AS1&lt;/strike&gt;&lt;/div&gt;&lt;/div&gt;" style="rounded=0;whiteSpace=wrap;html=1;fillColor=#f5f5f5;fontColor=#333333;strokeColor=#666666;" vertex="1" parent="1">
          <mxGeometry x="290" y="560" width="180" height="70" as="geometry" />
        </mxCell>
        <mxCell id="x_vzmbfjRcHhfL4o9gEs-40" value="Web Archives" style="ellipse;shape=cloud;whiteSpace=wrap;html=1;fillColor=#ffe6cc;strokeColor=#d79b00;" vertex="1" parent="1">
          <mxGeometry x="305" y="780" width="120" height="80" as="geometry" />
        </mxCell>
      </root>
    </mxGraphModel>
  </diagram>
</mxfile>
